<?xml version="1.0" encoding="UTF-8" standalone="no"?><svg xmlns="http://www.w3.org/2000/svg" xmlns:xlink="http://www.w3.org/1999/xlink" contentStyleType="text/css" height="377px" preserveAspectRatio="none" style="width:656px;height:377px;background:#FFFFFF;" version="1.1" viewBox="0 0 656 377" width="656px" zoomAndPan="magnify"><defs/><g><!--MD5=[e45c3f071bfe6659083f989675397083]
entity BootstrapClassLoader--><g id="elem_BootstrapClassLoader"><rect fill="#F1F1F1" height="46.2969" rx="2.5" ry="2.5" style="stroke:#181818;stroke-width:0.5;" width="198" x="226.5" y="7"/><rect fill="#F1F1F1" height="10" style="stroke:#181818;stroke-width:0.5;" width="15" x="404.5" y="12"/><rect fill="#F1F1F1" height="2" style="stroke:#181818;stroke-width:0.5;" width="4" x="402.5" y="14"/><rect fill="#F1F1F1" height="2" style="stroke:#181818;stroke-width:0.5;" width="4" x="402.5" y="18"/><text fill="#000000" font-family="sans-serif" font-size="14" lengthAdjust="spacing" textLength="158" x="241.5" y="39.9951">BootstrapClassLoader</text></g><!--MD5=[c80a58032c8f57c09a813f6d0271d6cf]
entity ExtClassLoader--><g id="elem_ExtClassLoader"><rect fill="#F1F1F1" height="46.2969" rx="2.5" ry="2.5" style="stroke:#181818;stroke-width:0.5;" width="149" x="251" y="113"/><rect fill="#F1F1F1" height="10" style="stroke:#181818;stroke-width:0.5;" width="15" x="380" y="118"/><rect fill="#F1F1F1" height="2" style="stroke:#181818;stroke-width:0.5;" width="4" x="378" y="120"/><rect fill="#F1F1F1" height="2" style="stroke:#181818;stroke-width:0.5;" width="4" x="378" y="124"/><text fill="#000000" font-family="sans-serif" font-size="14" lengthAdjust="spacing" textLength="109" x="266" y="145.9951">ExtClassLoader</text></g><!--MD5=[4803fbaea26a07dd10da775138ffddb7]
entity AppClassLoader--><g id="elem_AppClassLoader"><rect fill="#F1F1F1" height="46.2969" rx="2.5" ry="2.5" style="stroke:#181818;stroke-width:0.5;" width="155" x="248" y="219"/><rect fill="#F1F1F1" height="10" style="stroke:#181818;stroke-width:0.5;" width="15" x="383" y="224"/><rect fill="#F1F1F1" height="2" style="stroke:#181818;stroke-width:0.5;" width="4" x="381" y="226"/><rect fill="#F1F1F1" height="2" style="stroke:#181818;stroke-width:0.5;" width="4" x="381" y="230"/><text fill="#000000" font-family="sans-serif" font-size="14" lengthAdjust="spacing" textLength="115" x="263" y="251.9951">AppClassLoader</text></g><!--MD5=[c9fa967dc632f9caa366d8d1d6ec8bc5]
entity CustomClassLoader1--><g id="elem_CustomClassLoader1"><rect fill="#F1F1F1" height="46.2969" rx="2.5" ry="2.5" style="stroke:#181818;stroke-width:0.5;" width="189" x="7" y="325"/><rect fill="#F1F1F1" height="10" style="stroke:#181818;stroke-width:0.5;" width="15" x="176" y="330"/><rect fill="#F1F1F1" height="2" style="stroke:#181818;stroke-width:0.5;" width="4" x="174" y="332"/><rect fill="#F1F1F1" height="2" style="stroke:#181818;stroke-width:0.5;" width="4" x="174" y="336"/><text fill="#000000" font-family="sans-serif" font-size="14" lengthAdjust="spacing" textLength="149" x="22" y="357.9951">CustomClassLoader1</text></g><!--MD5=[f35248c32d15769153a2748a87d50e3f]
entity CustomClassLoader2--><g id="elem_CustomClassLoader2"><rect fill="#F1F1F1" height="46.2969" rx="2.5" ry="2.5" style="stroke:#181818;stroke-width:0.5;" width="188" x="231.5" y="325"/><rect fill="#F1F1F1" height="10" style="stroke:#181818;stroke-width:0.5;" width="15" x="399.5" y="330"/><rect fill="#F1F1F1" height="2" style="stroke:#181818;stroke-width:0.5;" width="4" x="397.5" y="332"/><rect fill="#F1F1F1" height="2" style="stroke:#181818;stroke-width:0.5;" width="4" x="397.5" y="336"/><text fill="#000000" font-family="sans-serif" font-size="14" lengthAdjust="spacing" textLength="148" x="246.5" y="357.9951">CustomClassLoader2</text></g><!--MD5=[123fccea52f63f69ac74e5854a1625ea]
entity CustomClassLoader...--><g id="elem_CustomClassLoader..."><rect fill="#F1F1F1" height="46.2969" rx="2.5" ry="2.5" style="stroke:#181818;stroke-width:0.5;" width="195" x="455" y="325"/><rect fill="#F1F1F1" height="10" style="stroke:#181818;stroke-width:0.5;" width="15" x="630" y="330"/><rect fill="#F1F1F1" height="2" style="stroke:#181818;stroke-width:0.5;" width="4" x="628" y="332"/><rect fill="#F1F1F1" height="2" style="stroke:#181818;stroke-width:0.5;" width="4" x="628" y="336"/><text fill="#000000" font-family="sans-serif" font-size="14" lengthAdjust="spacing" textLength="155" x="470" y="357.9951">CustomClassLoader...</text></g><!--MD5=[c81e4f55f081f3d6048fcef221b0a4a8]
reverse link BootstrapClassLoader to ExtClassLoader--><g id="link_BootstrapClassLoader_ExtClassLoader"><path d="M325.5,58.192 C325.5,75.262 325.5,96.989 325.5,112.976 " fill="none" id="BootstrapClassLoader-backto-ExtClassLoader" style="stroke:#181818;stroke-width:1.0;"/><polygon fill="#181818" points="325.5,53.056,321.5,62.056,325.5,58.056,329.5,62.056,325.5,53.056" style="stroke:#181818;stroke-width:1.0;"/></g><!--MD5=[3097272891eddbc7512686d8e02c01ad]
reverse link ExtClassLoader to AppClassLoader--><g id="link_ExtClassLoader_AppClassLoader"><path d="M325.5,164.192 C325.5,181.262 325.5,202.989 325.5,218.976 " fill="none" id="ExtClassLoader-backto-AppClassLoader" style="stroke:#181818;stroke-width:1.0;"/><polygon fill="#181818" points="325.5,159.056,321.5,168.056,325.5,164.056,329.5,168.056,325.5,159.056" style="stroke:#181818;stroke-width:1.0;"/></g><!--MD5=[9a54b8cb386813e67385ed2e52ec4d53]
reverse link AppClassLoader to CustomClassLoader1--><g id="link_AppClassLoader_CustomClassLoader1"><path d="M273.014,267.368 C235.451,284.8086 185.299,308.0933 148.936,324.9761 " fill="none" id="AppClassLoader-backto-CustomClassLoader1" style="stroke:#181818;stroke-width:1.0;"/><polygon fill="#181818" points="277.995,265.056,268.1475,265.2177,273.4599,267.1614,271.5162,272.4739,277.995,265.056" style="stroke:#181818;stroke-width:1.0;"/></g><!--MD5=[981e608488e27b1ab40aa294908e694d]
reverse link AppClassLoader to CustomClassLoader2--><g id="link_AppClassLoader_CustomClassLoader2"><path d="M325.5,270.192 C325.5,287.2616 325.5,308.9891 325.5,324.9761 " fill="none" id="AppClassLoader-backto-CustomClassLoader2" style="stroke:#181818;stroke-width:1.0;"/><polygon fill="#181818" points="325.5,265.056,321.5,274.056,325.5,270.056,329.5,274.056,325.5,265.056" style="stroke:#181818;stroke-width:1.0;"/></g><!--MD5=[4a528c69885c89b0315fe15060af6bf0]
reverse link AppClassLoader to CustomClassLoader...--><g id="link_AppClassLoader_CustomClassLoader..."><path d="M378.223,267.155 C416.34,284.6185 467.428,308.0244 504.429,324.9761 " fill="none" id="AppClassLoader-backto-CustomClassLoader..." style="stroke:#181818;stroke-width:1.0;"/><polygon fill="#181818" points="373.641,265.056,380.1587,272.4398,378.1871,267.1376,383.4892,265.166,373.641,265.056" style="stroke:#181818;stroke-width:1.0;"/></g><!--MD5=[3347695fc55f779fbfeb14e2f27e5a5e]
@startuml
[BootstrapClassLoader]
[ExtClassLoader]
[AppClassLoader]
[CustomClassLoader1]
[CustomClassLoader2]
[CustomClassLoader...]
BootstrapClassLoader <- - ExtClassLoader
ExtClassLoader <- - AppClassLoader
AppClassLoader <- - CustomClassLoader1
AppClassLoader <- - CustomClassLoader2
AppClassLoader <- - CustomClassLoader...
@enduml

PlantUML version 1.2022.4beta1(Unknown compile time)
(GPL source distribution)
Java Runtime: Java(TM) SE Runtime Environment
JVM: Java HotSpot(TM) 64-Bit Server VM
Default Encoding: UTF-8
Language: en
Country: US
--></g></svg>