<?xml version="1.0" encoding="UTF-8" standalone="no"?><svg xmlns="http://www.w3.org/2000/svg" xmlns:xlink="http://www.w3.org/1999/xlink" contentStyleType="text/css" height="206px" preserveAspectRatio="none" style="width:284px;height:206px;background:#FFFFFF;" version="1.1" viewBox="0 0 284 206" width="284px" zoomAndPan="magnify"><defs/><g><!--MD5=[7b209ab59cd210132e19951874ab75cc]
cluster Tomcat--><g id="cluster_Tomcat"><polygon points="16,16,26,6,155,6,155,179,145,189,16,189,16,16" style="stroke:#181818;stroke-width:1.0;fill:none;"/><line style="stroke:#181818;stroke-width:1.0;fill:none;" x1="145" x2="155" y1="16" y2="6"/><line style="stroke:#181818;stroke-width:1.0;fill:none;" x1="16" x2="145" y1="16" y2="16"/><line style="stroke:#181818;stroke-width:1.0;fill:none;" x1="145" x2="145" y1="16" y2="189"/><text fill="#000000" font-family="sans-serif" font-size="14" font-weight="bold" lengthAdjust="spacing" textLength="63" x="50" y="31.9951">Tomcat</text></g><!--MD5=[139eb3675d8d2079d38b14966bddfcbb]
entity App1--><g id="elem_App1"><rect fill="#F1F1F1" height="46.2969" rx="2.5" ry="2.5" style="stroke:#181818;stroke-width:0.5;" width="79" x="46" y="46"/><rect fill="#F1F1F1" height="10" style="stroke:#181818;stroke-width:0.5;" width="15" x="105" y="51"/><rect fill="#F1F1F1" height="2" style="stroke:#181818;stroke-width:0.5;" width="4" x="103" y="53"/><rect fill="#F1F1F1" height="2" style="stroke:#181818;stroke-width:0.5;" width="4" x="103" y="57"/><text fill="#000000" font-family="sans-serif" font-size="14" lengthAdjust="spacing" textLength="39" x="61" y="78.9951">App1</text></g><!--MD5=[15d2fd687f3b1a03431fe36778ee3e9d]
entity App2--><g id="elem_App2"><rect fill="#F1F1F1" height="46.2969" rx="2.5" ry="2.5" style="stroke:#181818;stroke-width:0.5;" width="78" x="46.5" y="127"/><rect fill="#F1F1F1" height="10" style="stroke:#181818;stroke-width:0.5;" width="15" x="104.5" y="132"/><rect fill="#F1F1F1" height="2" style="stroke:#181818;stroke-width:0.5;" width="4" x="102.5" y="134"/><rect fill="#F1F1F1" height="2" style="stroke:#181818;stroke-width:0.5;" width="4" x="102.5" y="138"/><text fill="#000000" font-family="sans-serif" font-size="14" lengthAdjust="spacing" textLength="38" x="61.5" y="159.9951">App2</text></g><!--MD5=[5d60345ce766f7c0e073a28bb30a81a8]
entity Spring3.0--><g id="elem_Spring3.0"><ellipse cx="242" cy="63" fill="#F1F1F1" rx="8" ry="8" style="stroke:#181818;stroke-width:0.5;"/><text fill="#000000" font-family="sans-serif" font-size="14" lengthAdjust="spacing" textLength="70" x="207" y="92.9951">Spring3.0</text></g><!--MD5=[c1943f3f1435dcb4f88526546e2993ee]
entity Spring4.0--><g id="elem_Spring4.0"><ellipse cx="242" cy="156" fill="#F1F1F1" rx="8" ry="8" style="stroke:#181818;stroke-width:0.5;"/><text fill="#000000" font-family="sans-serif" font-size="14" lengthAdjust="spacing" textLength="69" x="207.5" y="185.9951">Spring4.0</text></g><!--MD5=[67d7cca1998780d4902218523c050288]
link App1 to Spring3.0--><g id="link_App1_Spring3.0"><path d="M125.088,67.501 C158.541,66.202 205.026,64.397 227.614,63.52 " fill="none" id="App1-to-Spring3.0" style="stroke:#181818;stroke-width:1.0;"/><polygon fill="#181818" points="232.819,63.318,223.6704,59.6707,227.8228,63.5123,223.9812,67.6646,232.819,63.318" style="stroke:#181818;stroke-width:1.0;"/></g><!--MD5=[c95bde7c8d5582c9416d9c8f58ddd79e]
link App2 to Spring4.0--><g id="link_App2_Spring4.0"><path d="M124.691,151.4831 C158.136,152.782 204.838,154.5956 227.541,155.4773 " fill="none" id="App2-to-Spring4.0" style="stroke:#181818;stroke-width:1.0;"/><polygon fill="#181818" points="232.774,155.6805,223.9362,151.3338,227.7778,155.4862,223.6254,159.3278,232.774,155.6805" style="stroke:#181818;stroke-width:1.0;"/></g><!--MD5=[28a56572129771f5821649c5ff516c2e]
@startuml
left to right direction
node Tomcat {
  [App1]
  [App2]
}
App1 - -> Spring3.0
App2 - -> Spring4.0
@enduml

PlantUML version 1.2022.4beta1(Unknown compile time)
(GPL source distribution)
Java Runtime: Java(TM) SE Runtime Environment
JVM: Java HotSpot(TM) 64-Bit Server VM
Default Encoding: UTF-8
Language: en
Country: US
--></g></svg>